<svg width="201" height="180" viewBox="0 0 201 180" fill="none" xmlns="http://www.w3.org/2000/svg">
<path fill-rule="evenodd" clip-rule="evenodd" d="M149.769 9.83792C150.55 9.99339 151.238 10.4535 151.68 11.1167L190.407 69.2304C191.046 70.1889 191.079 71.4286 190.493 72.4203L155.743 131.216C155.824 131.94 155.694 132.696 155.327 133.388C154.614 134.728 153.204 135.459 151.782 135.372L100.876 168.872C101.172 170.402 100.239 171.923 98.7107 172.335C97.1109 172.767 95.4641 171.82 95.0326 170.22L94.5546 168.449L15.4372 109.618L14.3786 109.825C12.7526 110.144 11.1758 109.085 10.8567 107.459C10.7413 106.871 10.8062 106.289 11.0132 105.771C10.7653 105.148 10.727 104.445 10.935 103.774L35.4473 24.673C35.9286 23.1198 37.5597 22.2328 39.1252 22.6729L102.455 40.4778L147.513 10.2881C148.175 9.84441 148.987 9.68245 149.769 9.83792ZM183.051 73.2184L151.272 126.987L86.7503 92.7057L132.048 67.3657C132.617 67.0475 133.065 66.5535 133.327 65.9602L183.051 73.2184ZM181.68 66.9546L150.471 20.123L135.482 60.2111L181.68 66.9546ZM129.207 59.8621L144.216 19.7198L104.645 46.2327C103.916 46.7215 103.009 46.8662 102.163 46.6285L43.1294 30.0313L77.6269 88.3778C78.2357 88.3701 78.8551 88.5108 79.4308 88.8167L80.447 89.3567L127.615 62.9702C127.573 62.6868 127.571 62.3926 127.615 62.0945C127.76 61.1 128.377 60.2912 129.207 59.8621ZM145.424 132.373L81.937 98.6413L99.2368 162.767L145.424 132.373ZM75.503 97.8295L92.0312 159.095L23.393 108.056L75.503 97.8295ZM17.4216 103.114L38.7242 34.3704L72.9281 92.2204L17.4216 103.114Z" fill="white"/>
<path d="M13.8012 117.443C20.9549 117.443 26.7541 111.721 26.7541 104.662C26.7541 97.6039 20.9549 91.8818 13.8012 91.8818C6.64744 91.8818 0.848206 97.6039 0.848206 104.662C0.848206 111.721 6.64744 117.443 13.8012 117.443Z" fill="white"/>
<path d="M38.3142 38.3572C45.4679 38.3572 51.2671 32.6351 51.2671 25.5766C51.2671 18.518 45.4679 12.7959 38.3142 12.7959C31.1604 12.7959 25.3612 18.518 25.3612 25.5766C25.3612 32.6351 31.1604 38.3572 38.3142 38.3572Z" fill="white"/>
<path d="M77.6708 104.909C84.8245 104.909 90.6237 99.1871 90.6237 92.1286C90.6237 85.07 84.8245 79.3479 77.6708 79.3479C70.5171 79.3479 64.7178 85.07 64.7178 92.1286C64.7178 99.1871 70.5171 104.909 77.6708 104.909Z" fill="white"/>
<path d="M97.9299 180C105.084 180 110.883 174.278 110.883 167.219C110.883 160.161 105.084 154.439 97.9299 154.439C90.7762 154.439 84.9769 160.161 84.9769 167.219C84.9769 174.278 90.7762 180 97.9299 180Z" fill="white"/>
<path d="M152.014 144.409C159.168 144.409 164.967 138.687 164.967 131.628C164.967 124.57 159.168 118.848 152.014 118.848C144.86 118.848 139.061 124.57 139.061 131.628C139.061 138.687 144.86 144.409 152.014 144.409Z" fill="white"/>
<path d="M130.584 75.3084C137.737 75.3084 143.537 69.5863 143.537 62.5277C143.537 55.4692 137.737 49.7471 130.584 49.7471C123.43 49.7471 117.631 55.4692 117.631 62.5277C117.631 69.5863 123.43 75.3084 130.584 75.3084Z" fill="white"/>
<path d="M149.183 25.5613C156.337 25.5613 162.136 19.8392 162.136 12.7807C162.136 5.72209 156.337 0 149.183 0C142.03 0 136.23 5.72209 136.23 12.7807C136.23 19.8392 142.03 25.5613 149.183 25.5613Z" fill="white"/>
<path d="M187.895 83.6748C195.049 83.6748 200.848 77.9527 200.848 70.8942C200.848 63.8356 195.049 58.1135 187.895 58.1135C180.742 58.1135 174.942 63.8356 174.942 70.8942C174.942 77.9527 180.742 83.6748 187.895 83.6748Z" fill="white"/>
</svg>
